<svg xmlns="http://www.w3.org/2000/svg" viewBox="0 0 100 100">
  <defs>
    <linearGradient id="grad" x1="0%" y1="0%" x2="100%" y2="100%">
      <stop offset="0%" style="stop-color:#2563eb;stop-opacity:1" />
      <stop offset="100%" style="stop-color:#1d4ed8;stop-opacity:1" />
    </linearGradient>
  </defs>
  <rect width="100" height="100" rx="20" fill="url(#grad)"/>
  <path d="M50 20 C30 20 20 35 20 50 C20 65 30 80 50 80 C70 80 80 65 80 50 C80 35 70 20 50 20 Z M50 30 C65 30 70 40 70 50 C70 60 65 70 50 70 C35 70 30 60 30 50 C30 40 35 30 50 30 Z" fill="white" opacity="0.9"/>
  <circle cx="50" cy="50" r="8" fill="white"/>
  <path d="M40 35 Q50 25 60 35" stroke="white" stroke-width="3" fill="none" stroke-linecap="round"/>
  <path d="M35 45 Q50 40 65 45" stroke="white" stroke-width="2" fill="none" stroke-linecap="round" opacity="0.7"/>
  <path d="M35 55 Q50 60 65 55" stroke="white" stroke-width="2" fill="none" stroke-linecap="round" opacity="0.7"/>
</svg>